<?xml version="1.0" encoding="UTF-8"?>
<svg id="Layer_1" data-name="Layer 1" xmlns="http://www.w3.org/2000/svg" viewBox="0 0 70 70">
  <defs>
    <style>
      .cls-1 {
        fill: #1a235b;
      }
    </style>
  </defs>
  <path class="cls-1" d="M19.44,56.43l-8.07-1.76c-.73-.15-1.32-.53-1.76-1.14-.44-.61-.61-1.28-.51-2.02l.81-8.29-5.5-6.31c-.49-.54-.73-1.17-.73-1.91s.24-1.37,.73-1.91l5.5-6.31-.81-8.29c-.1-.73,.07-1.41,.51-2.02,.44-.61,1.03-.99,1.76-1.14l8.07-1.76,4.26-7.19c.39-.64,.93-1.05,1.61-1.25,.68-.2,1.37-.17,2.05,.07l7.63,3.23,7.63-3.23c.69-.24,1.37-.27,2.05-.07,.68,.2,1.22,.61,1.61,1.25l4.26,7.19,8.07,1.76c.73,.15,1.32,.53,1.76,1.14,.44,.61,.61,1.28,.51,2.02l-.81,8.29,5.5,6.31c.49,.54,.73,1.17,.73,1.91s-.24,1.37-.73,1.91l-5.5,6.31,.81,8.29c.1,.73-.07,1.41-.51,2.02s-1.03,.99-1.76,1.14l-8.07,1.76-4.26,7.19c-.39,.64-.93,1.05-1.61,1.25-.69,.2-1.37,.17-2.05-.07l-7.63-3.23-7.63,3.23c-.68,.24-1.37,.27-2.05,.07-.69-.2-1.22-.61-1.61-1.25l-4.26-7.19Zm10.42-13.06c.54,.54,1.22,.81,2.05,.81s1.52-.27,2.05-.81l12.48-12.48c.59-.59,.88-1.28,.88-2.09s-.29-1.5-.88-2.09c-.59-.59-1.28-.88-2.09-.88s-1.5,.29-2.09,.88l-10.35,10.35-4.26-4.18c-.59-.54-1.28-.8-2.09-.77-.81,.02-1.48,.31-2.02,.85-.54,.54-.81,1.22-.81,2.05s.27,1.52,.81,2.05l6.31,6.31Z"/>
</svg>