<?xml version="1.0" encoding="UTF-8"?>
<svg id="Layer_1" data-name="Layer 1" xmlns="http://www.w3.org/2000/svg" viewBox="0 0 70 70">
  <defs>
    <style>
      .cls-1 {
        fill: #1a235b;
      }
    </style>
  </defs>
  <path class="cls-1" d="M61.02,15.59c-.24-.27-.53-.49-.86-.65-.33-.15-.68-.24-1.04-.25-5.62-.15-12.72-6.15-17.42-8.51-2.9-1.45-4.82-2.41-6.26-2.66-.29-.04-.59-.04-.88,0-1.44,.25-3.35,1.21-6.25,2.66-4.7,2.35-11.8,8.36-17.42,8.5-.36,.01-.72,.1-1.04,.25-.33,.15-.62,.37-.86,.65-.5,.56-.75,1.29-.71,2.04,1.21,24.52,10,39.7,25.44,48.52,.4,.23,.85,.34,1.29,.34s.89-.12,1.29-.34c15.43-8.82,24.23-24,25.44-48.52,.04-.75-.21-1.48-.71-2.04Zm-12.27,9.64l-13.02,19.22c-.47,.69-1.2,1.15-1.93,1.15s-1.54-.4-2.05-.91l-9.18-9.18c-.3-.3-.47-.71-.47-1.13s.17-.83,.47-1.13l2.27-2.27c.3-.3,.71-.47,1.13-.47s.83,.17,1.13,.47l5.97,5.97,10.37-15.31c.24-.35,.61-.59,1.03-.67,.42-.08,.85,0,1.2,.25l2.65,1.8c.35,.24,.59,.61,.67,1.03,.08,.42,0,.85-.25,1.2Z"/>
</svg>