<?xml version="1.0" encoding="UTF-8"?>
<svg id="Layer_1" data-name="Layer 1" xmlns="http://www.w3.org/2000/svg" viewBox="0 0 70 70">
  <defs>
    <style>
      .cls-1 {
        fill: #1a235b;
      }
    </style>
  </defs>
  <path class="cls-1" d="M35,10.08c-1.21,0-2.19-.98-2.19-2.19V2.19c0-1.21,.98-2.19,2.19-2.19s2.19,.98,2.19,2.19V7.9c0,1.21-.98,2.19-2.19,2.19Zm19.17,7.94c-1.21,0-2.19-.98-2.19-2.19,0-.58,.23-1.14,.64-1.55l4.04-4.04c.85-.85,2.24-.85,3.09,0,.85,.85,.85,2.24,0,3.09l-4.04,4.04c-.41,.41-.97,.64-1.55,.64h0Zm13.65,19.17h-5.71c-1.21,0-2.19-.98-2.19-2.19s.98-2.19,2.19-2.19h5.71c1.21,0,2.19,.98,2.19,2.19s-.98,2.19-2.19,2.19Zm-9.61,23.2c-.58,0-1.14-.23-1.55-.64l-4.04-4.04c-.85-.85-.85-2.24,0-3.09s2.24-.85,3.09,0l4.04,4.04c.86,.85,.86,2.24,0,3.09-.41,.41-.97,.64-1.55,.64Zm-46.4,0c-1.21,0-2.19-.98-2.19-2.19,0-.58,.23-1.14,.64-1.55l4.04-4.04c.85-.85,2.24-.85,3.09,0,.85,.85,.85,2.24,0,3.09l-4.04,4.04c-.41,.41-.97,.64-1.55,.64Zm-3.9-23.2H2.19c-1.21,0-2.19-.98-2.19-2.19s.98-2.19,2.19-2.19H7.9c1.21,0,2.19,.98,2.19,2.19s-.98,2.19-2.19,2.19Zm7.94-19.17c-.58,0-1.14-.23-1.55-.64l-4.04-4.04c-.85-.85-.85-2.24,0-3.09,.85-.85,2.24-.85,3.09,0h0l4.04,4.04c.86,.85,.86,2.24,0,3.09-.41,.41-.97,.64-1.55,.64Zm27.92,43.23v3.65c0,2.8-2.3,5.1-5.1,5.1h-7.29c-2.45,0-5.1-1.87-5.1-5.95v-2.8h17.5Zm4.11-42.12c-4.83-3.9-11.17-5.4-17.24-4.08-7.73,1.6-14,7.9-15.6,15.63-1.63,7.93,1.34,15.81,7.7,20.62,1.72,1.28,2.92,3.27,3.33,5.57v.03c.06-.03,.15-.03,.2-.03h17.5c.06,0,.09,0,.15,.03v-.03c.41-2.22,1.72-4.26,3.73-5.83,4.92-3.87,7.79-9.78,7.79-16.04,0-6.18-2.74-11.96-7.55-15.87Zm-1.92,17.33c-1.2,0-2.19-.99-2.19-2.19,0-4.43-3.59-8.02-8.02-8.02-1.2,0-2.19-.99-2.19-2.19s.99-2.19,2.19-2.19c6.84,.02,12.38,5.56,12.4,12.4,0,1.2-.99,2.19-2.19,2.19Z"/>
  <path class="cls-1" d="M26.05,56.88h.2c-.06,0-.15,0-.2,.03v-.03Zm17.85,0v.03c-.06-.03-.09-.03-.15-.03h.15Z"/>
</svg>