<?xml version="1.0" encoding="UTF-8"?>
<svg id="Layer_1" data-name="Layer 1" xmlns="http://www.w3.org/2000/svg" viewBox="0 0 70 70">
  <defs>
    <style>
      .cls-1 {
        fill: #1a235b;
      }
    </style>
  </defs>
  <path class="cls-1" d="M5.83,29.87l12.75-12.75c.71-.71,1.54-1.21,2.5-1.52,.96-.3,1.95-.35,2.96-.15l3.95,.83c-2.73,3.24-4.88,6.17-6.45,8.8-1.57,2.63-3.09,5.82-4.55,9.56l-11.15-4.78Zm15.55,6.9c1.16-3.64,2.74-7.08,4.74-10.32,2-3.24,4.41-6.27,7.24-9.1,4.45-4.45,9.53-7.78,15.25-9.98,5.72-2.2,11.05-2.87,16.01-2.01,.86,4.96,.2,10.29-1.97,16.01-2.18,5.72-5.49,10.8-9.94,15.25-2.78,2.78-5.82,5.2-9.1,7.25-3.29,2.05-6.75,3.66-10.39,4.82l-11.84-11.91Zm20.94-9.1c1.16,1.16,2.59,1.75,4.29,1.75s3.12-.58,4.29-1.75c1.16-1.16,1.75-2.59,1.75-4.29s-.58-3.12-1.75-4.29c-1.16-1.16-2.59-1.74-4.29-1.74s-3.12,.58-4.29,1.74c-1.16,1.16-1.75,2.59-1.75,4.29s.58,3.12,1.75,4.29Zm-2.12,36.49l-4.86-11.15c3.74-1.47,6.94-2.98,9.6-4.55,2.66-1.57,5.6-3.72,8.84-6.45l.76,3.95c.2,1.01,.15,2.01-.15,3-.3,.99-.81,1.83-1.52,2.54l-12.67,12.67ZM10.69,46.49c1.77-1.77,3.92-2.67,6.45-2.7,2.53-.03,4.68,.85,6.45,2.62,1.77,1.77,2.66,3.92,2.66,6.45s-.89,4.68-2.66,6.45c-1.26,1.26-3.38,2.35-6.33,3.26-2.96,.91-7.04,1.72-12.26,2.43,.71-5.21,1.52-9.28,2.43-12.22,.91-2.93,2-5.03,3.26-6.3Z"/>
</svg>